HIERARCHY
ROOT Hips
{
	OFFSET 0.00000 0.00000 0.00000
	CHANNELS 6 Xposition Yposition Zposition Zrotation Yrotation Xrotation 
	JOINT LHipJoint
	{
		OFFSET 0 0 0
		CHANNELS 3 Zrotation Yrotation Xrotation
		JOINT LeftUpLeg
		{
			OFFSET 1.53139 -1.83434 0.76626
			CHANNELS 3 Zrotation Yrotation Xrotation
			JOINT LeftLeg
			{
				OFFSET 2.56112 -7.03663 0.00000
				CHANNELS 3 Zrotation Yrotation Xrotation
				JOINT LeftFoot
				{
					OFFSET 2.59983 -7.14299 0.00000
					CHANNELS 3 Zrotation Yrotation Xrotation
					JOINT LeftToeBase
					{
						OFFSET 0.13742 -0.37757 2.00054
						CHANNELS 3 Zrotation Yrotation Xrotation
						End Site
						{
							OFFSET 0.00000 -0.00000 1.02897
						}
					}
				}
			}
		}
	}
	JOINT RHipJoint
	{
		OFFSET 0 0 0
		CHANNELS 3 Zrotation Yrotation Xrotation
		JOINT RightUpLeg
		{
			OFFSET -1.40122 -1.83435 0.76627
			CHANNELS 3 Zrotation Yrotation Xrotation
			JOINT RightLeg
			{
				OFFSET -2.54052 -6.98003 0.00000
				CHANNELS 3 Zrotation Yrotation Xrotation
				JOINT RightFoot
				{
					OFFSET -2.63179 -7.23079 0.00000
					CHANNELS 3 Zrotation Yrotation Xrotation
					JOINT RightToeBase
					{
						OFFSET -0.24131 -0.66299 2.03908
						CHANNELS 3 Zrotation Yrotation Xrotation
						End Site
						{
							OFFSET -0.00000 -0.00000 1.07391
						}
					}
				}
			}
		}
	}
	JOINT LowerBack
	{
		OFFSET 0 0 0
		CHANNELS 3 Zrotation Yrotation Xrotation
		JOINT Spine
		{
			OFFSET 0.01174 2.10302 -0.29778
			CHANNELS 3 Zrotation Yrotation Xrotation
			JOINT Spine1
			{
				OFFSET 0.00772 2.13227 -0.01247
				CHANNELS 3 Zrotation Yrotation Xrotation
				JOINT Neck
				{
					OFFSET 0 0 0
					CHANNELS 3 Zrotation Yrotation Xrotation
					JOINT Neck1
					{
						OFFSET -0.09219 1.60848 0.31481
						CHANNELS 3 Zrotation Yrotation Xrotation
						JOINT Head
						{
							OFFSET 0.13974 1.65456 -0.31134
							CHANNELS 3 Zrotation Yrotation Xrotation
							End Site
							{
								OFFSET 0.04742 1.69515 -0.14578
							}
						}
					}
				}
				JOINT LeftShoulder
				{
					OFFSET 0 0 0
					CHANNELS 3 Zrotation Yrotation Xrotation
					JOINT LeftArm
					{
						OFFSET 3.24909 1.02882 -0.23993
						CHANNELS 3 Zrotation Yrotation Xrotation
						JOINT LeftForeArm
						{
							OFFSET 5.32955 -0.00000 -0.00000
							CHANNELS 3 Zrotation Yrotation Xrotation
							JOINT LeftHand
							{
								OFFSET 3.69232 -0.00000 -0.00000
								CHANNELS 3 Zrotation Yrotation Xrotation
								JOINT LeftFingerBase
								{
									OFFSET 0 0 0
									CHANNELS 3 Zrotation Yrotation Xrotation
									JOINT LeftHandIndex1
									{
										OFFSET 0.53660 -0.00000 -0.00000
										CHANNELS 3 Zrotation Yrotation Xrotation
										End Site
										{
											OFFSET 0.43262 -0.00000 -0.00000
										}
									}
								}
								JOINT LThumb
								{
									OFFSET 0 0 0
									CHANNELS 3 Zrotation Yrotation Xrotation
									End Site
									{
										OFFSET 0.43922 -0.00000 0.43922
									}
								}
							}
						}
					}
				}
				JOINT RightShoulder
				{
					OFFSET 0 0 0
					CHANNELS 3 Zrotation Yrotation Xrotation
					JOINT RightArm
					{
						OFFSET -3.21387 0.93002 -0.34594
						CHANNELS 3 Zrotation Yrotation Xrotation
						JOINT RightForeArm
						{
							OFFSET -5.23431 -0.00000 0.00000
							CHANNELS 3 Zrotation Yrotation Xrotation
							JOINT RightHand
							{
								OFFSET -3.55301 -0.00000 -0.00000
								CHANNELS 3 Zrotation Yrotation Xrotation
								JOINT RightFingerBase
								{
									OFFSET 0 0 0
									CHANNELS 3 Zrotation Yrotation Xrotation
									JOINT RightHandIndex1
									{
										OFFSET -0.77252 -0.00000 -0.00000
										CHANNELS 3 Zrotation Yrotation Xrotation
										End Site
										{
											OFFSET -0.62283 -0.00000 -0.00000
										}
									}
								}
								JOINT RThumb
								{
									OFFSET 0 0 0
									CHANNELS 3 Zrotation Yrotation Xrotation
									End Site
									{
										OFFSET -0.63234 -0.00000 0.63234
									}
								}
							}
						}
					}
				}
			}
		}
	}
}
MOTION
Frames: 6
Frame Time: .0083333
-2.0485 17.6455 9.3760 4.2891 -4.3883 -3.4410 0.0000 0.0000 0.0000 -11.4937 -3.5228 -0.6703 0.1750 2.6950 7.4307 -0.0008 -0.9008 1.1205 1.3646 -7.3936 -20.8867 0.0000 0.0000 0.0000 4.5391 -0.9297 0.5959 -2.3525 -9.5647 27.5784 0.3842 -16.0245 -18.4023 -0.0266 1.0529 -2.8943 0.9232 2.4524 12.7136 0.0023 3.3875 0.6100 -1.1265 1.6289 -6.4309 -6.9689 5.0094 -24.1885 1.7617 9.9285 33.2043 3.8628 3.5484 15.2410 0.0000 -0.0000 0.0000 -91.2807 2.6972 -5.8928 13.9450 -22.6560 -2.8069 -0.0000 -0.0000 10.0679 20.1905 21.3881 7.6383 -7.1250 0.0000 -0.0000 -8.7631 52.4207 -1.6106 0.0000 -0.0000 0.0000 84.4179 -3.5230 2.4942 -15.9428 25.4430 -3.6213 0.0000 0.0000 5.3173 -17.6506 8.2489 -2.6139 7.1250 -0.0000 -0.0000 6.6620 -21.3530 3.8042
-1.9216 17.6516 9.4217 4.6515 -3.8213 -3.2500 0.0000 0.0000 0.0000 -12.4108 -3.7278 -1.4157 0.2221 3.0337 8.3725 -0.0097 -1.7492 0.7414 1.4383 -7.5823 -21.4525 0.0000 0.0000 0.0000 3.7965 -1.0454 0.6634 -2.3325 -9.5269 27.4578 0.5088 -16.7340 -18.0390 -0.0271 1.0623 -2.9203 0.7419 2.4212 12.7058 -0.1047 3.3140 0.5102 -1.1270 1.5953 -6.5381 -6.9241 4.9965 -24.2023 1.6862 9.9261 33.2324 3.8269 3.5400 15.2671 0.0000 -0.0000 0.0000 -91.3755 2.4631 -6.0694 13.9075 -22.6023 -2.7925 -0.0000 -0.0000 10.0992 20.1464 21.5086 7.6608 -7.1250 0.0000 -0.0000 -8.8503 52.5367 -1.6521 0.0000 -0.0000 0.0000 84.5297 -3.8058 1.9159 -15.9336 25.4305 -3.6174 0.0000 0.0000 4.5520 -18.1931 8.7643 -2.8668 7.1250 -0.0000 -0.0000 6.2652 -20.7865 3.6555
-1.7912 17.6625 9.4646 5.0295 -3.2589 -3.0694 0.0000 0.0000 0.0000 -13.3170 -3.9721 -2.2339 0.2814 3.4119 9.4276 -0.0197 -2.5334 0.4265 1.3128 -7.2574 -20.4803 0.0000 0.0000 0.0000 3.0038 -1.1456 0.7834 -2.3068 -9.4779 27.3020 0.6817 -17.6499 -17.4324 -0.0302 1.1221 -3.0847 0.5925 2.4055 12.7496 -0.2272 3.2643 0.4104 -1.1685 1.5719 -6.6708 -6.8735 4.9920 -24.2901 1.6547 9.9343 33.3677 3.8197 3.5357 15.3561 -0.0000 -0.0000 0.0000 -91.4429 2.3224 -5.8816 13.9241 -22.6260 -2.7988 -0.0000 -0.0000 9.8013 20.1791 21.8032 7.7729 -7.1250 0.0000 -0.0000 -8.9242 52.8448 -1.7336 -0.0000 -0.0000 0.0000 84.6723 -4.0318 1.3215 -15.8547 25.3233 -3.5836 0.0000 0.0000 3.5038 -18.9214 9.6959 -3.3042 7.1250 -0.0000 -0.0000 5.7418 -19.7676 3.4789
-1.6619 17.6734 9.5100 5.4103 -2.6995 -3.0144 0.0000 0.0000 0.0000 -14.2174 -3.8288 -3.0906 0.3518 3.8109 10.5453 -0.0389 -3.6206 0.3171 1.0727 -6.5838 -18.4881 0.0000 0.0000 0.0000 2.1999 -1.3408 1.0713 -2.2775 -9.4216 27.1231 0.8608 -18.5678 -16.7618 -0.0494 1.4349 -3.9462 0.4313 2.3687 12.7676 -0.3280 3.1851 0.4355 -1.1700 1.5370 -6.6586 -6.9009 4.9987 -24.4068 1.5738 10.0095 33.4487 3.8150 3.5443 15.4224 0.0000 -0.0000 0.0000 -91.5605 1.9962 -5.9204 13.9404 -22.6494 -2.8051 -0.0000 -0.0000 9.6424 20.2955 21.7808 7.8136 -7.1250 0.0000 -0.0000 -8.7990 52.8431 -1.7086 0.0000 -0.0000 0.0000 84.7509 -4.1620 0.8140 -15.7896 25.2346 -3.5558 0.0000 0.0000 2.9644 -19.4738 10.5037 -3.6883 7.1250 -0.0000 -0.0000 5.3559 -18.8810 3.3491
-1.5377 17.6872 9.5559 5.6525 -2.1544 -3.0534 0.0000 0.0000 0.0000 -14.9443 -3.5152 -3.8964 0.4263 4.1903 11.6128 -0.0693 -4.8634 0.3034 0.8836 -5.9923 -16.7622 0.0000 0.0000 0.0000 1.6370 -1.4615 1.4672 -2.2542 -9.3765 26.9804 1.0077 -19.3123 -16.2048 -0.0141 0.7670 -2.1078 0.3414 2.3185 12.8176 -0.3460 3.1037 0.5460 -1.1227 1.5009 -6.5745 -7.0753 4.9843 -24.5429 1.6057 10.0721 33.5013 3.8773 3.5481 15.4618 -0.0000 -0.0000 0.0000 -91.6816 1.5149 -5.9437 13.9356 -22.6425 -2.8033 -0.0000 -0.0000 9.6222 20.1740 22.0791 7.8631 -7.1250 0.0000 -0.0000 -9.0313 53.1269 -1.8173 -0.0000 -0.0000 0.0000 84.7250 -4.2008 -0.4020 -15.9941 25.5127 -3.6434 0.0000 0.0000 5.1237 -17.7768 9.1535 -2.9198 7.1250 -0.0000 -0.0000 6.5613 -20.4052 3.8872
-1.4150 17.6980 9.5974 5.8649 -1.6091 -3.0943 0.0000 0.0000 0.0000 -15.6343 -3.2116 -4.5247 0.4920 4.4972 12.4797 -0.1055 -6.0213 0.2981 0.7573 -5.5579 -15.5070 0.0000 0.0000 0.0000 1.1664 -1.4315 1.8185 -2.2412 -9.3514 26.9010 1.2050 -20.2919 -15.4131 -0.0221 -0.9593 2.6368 0.2732 2.2626 12.9475 -0.3646 3.0181 0.6451 -1.0914 1.4612 -6.5458 -7.1830 4.9531 -24.6310 1.6361 10.0657 33.4446 3.9072 3.5390 15.4464 -0.0000 0.0000 0.0000 -91.7895 1.0929 -5.7618 13.9693 -22.6908 -2.8163 -0.0000 -0.0000 9.3935 20.2200 22.7141 8.0945 -7.1250 0.0000 -0.0000 -9.2271 53.7855 -2.0063 -0.0000 0.0000 0.0000 84.7846 -4.2571 -1.2057 -16.1639 25.7424 -3.7169 0.0000 0.0000 5.6798 -17.1090 8.1117 -2.4870 7.1250 -0.0000 -0.0000 7.0561 -21.5229 4.0052
